<?xml version="1.0" encoding="UTF-8"?> <!-- Generator: Adobe Illustrator 23.0.0, SVG Export Plug-In . SVG Version: 6.00 Build 0) --> <svg xmlns="http://www.w3.org/2000/svg" xmlns:xlink="http://www.w3.org/1999/xlink" id="Layer_1" x="0px" y="0px" viewBox="0 0 141.7 169.4" style="enable-background:new 0 0 141.7 169.4;" xml:space="preserve"> <style type="text/css"> .st0{fill:url(#SVGID_1_);} .st1{fill:url(#SVGID_2_);} .st2{fill:url(#SVGID_3_);} .st3{fill:url(#SVGID_4_);} .st4{fill:url(#SVGID_5_);} .st5{fill:url(#SVGID_6_);} .st6{fill:url(#SVGID_7_);} .st7{fill:url(#SVGID_8_);} .st8{fill:url(#SVGID_9_);} .st9{fill:url(#SVGID_10_);} .st10{fill:url(#SVGID_11_);} .st11{fill:url(#SVGID_12_);} .st12{fill:url(#SVGID_13_);} .st13{fill:url(#SVGID_14_);} .st14{fill:#F0A61F;} </style> <g> <g> <radialGradient id="SVGID_1_" cx="135.3317" cy="232.2612" r="193.2167" gradientUnits="userSpaceOnUse"> <stop offset="0" style="stop-color:#E76B25"></stop> <stop offset="1" style="stop-color:#E5AE30"></stop> </radialGradient> <path class="st0" d="M12.2,168.6c-2.8,0-3.8-1.1-3.8-3.8v-13c0-1.9,1.3-3,2.9-3h10.6l0.4,4.2h-8.3c-0.3,0-0.4,0.2-0.4,0.5V164 c0,0.3,0.1,0.5,0.4,0.5h8.3l-0.4,4.2H12.2z"></path> <radialGradient id="SVGID_2_" cx="135.3057" cy="232.2612" r="193.1632" gradientUnits="userSpaceOnUse"> <stop offset="0" style="stop-color:#E76B25"></stop> <stop offset="1" style="stop-color:#E5AE30"></stop> </radialGradient> <path class="st1" d="M104.2,165.6l-0.7,3.1h-4.9l5.5-19.8h5.4l5.5,19.8H110l-0.7-3.1H104.2z M105.1,161.7h3.3l-1.6-6.2 L105.1,161.7z"></path> <radialGradient id="SVGID_3_" cx="135.2921" cy="232.2612" r="193.1687" gradientUnits="userSpaceOnUse"> <stop offset="0" style="stop-color:#E76B25"></stop> <stop offset="1" style="stop-color:#E5AE30"></stop> </radialGradient> <path class="st2" d="M33.4,165.6l-0.7,3.1h-4.9l5.5-19.8h5.5l5.5,19.8h-5.1l-0.7-3.1H33.4z M34.3,161.7h3.3l-1.6-6.2L34.3,161.7z"></path> <radialGradient id="SVGID_4_" cx="135.2851" cy="232.2612" r="193.1563" gradientUnits="userSpaceOnUse"> <stop offset="0" style="stop-color:#E76B25"></stop> <stop offset="1" style="stop-color:#E5AE30"></stop> </radialGradient> <path class="st3" d="M61.4,148.8c1.9,0,2.9,1.2,2.9,3v9.1c0,1.9-0.7,3.3-3.5,3.3H55v4.5h-5v-19.8H61.4z M55,153.1v6.9h4.5 c0.4,0,0.5-0.1,0.5-0.5v-6c0-0.3-0.1-0.5-0.4-0.5H55z"></path> <radialGradient id="SVGID_5_" cx="135.2995" cy="232.2612" r="193.1729" gradientUnits="userSpaceOnUse"> <stop offset="0" style="stop-color:#E76B25"></stop> <stop offset="1" style="stop-color:#E5AE30"></stop> </radialGradient> <path class="st4" d="M71.3,148.8h5v19.8h-5V148.8z"></path> <radialGradient id="SVGID_6_" cx="135.3034" cy="232.2612" r="193.1751" gradientUnits="userSpaceOnUse"> <stop offset="0" style="stop-color:#E76B25"></stop> <stop offset="1" style="stop-color:#E5AE30"></stop> </radialGradient> <path class="st5" d="M95.4,148.8l0.2,4.6h-4.3v15.2h-5.1v-15.2h-4.3l0.3-4.6H95.4z"></path> <radialGradient id="SVGID_7_" cx="135.284" cy="232.2612" r="193.153" gradientUnits="userSpaceOnUse"> <stop offset="0" style="stop-color:#E76B25"></stop> <stop offset="1" style="stop-color:#E5AE30"></stop> </radialGradient> <path class="st6" d="M120.5,148.8h5.1V164h7l-0.8,4.6h-11.3V148.8z"></path> </g> <radialGradient id="SVGID_8_" cx="-14.3144" cy="21.2799" r="142.0819" gradientUnits="userSpaceOnUse"> <stop offset="0" style="stop-color:#5F6163"></stop> <stop offset="0.1712" style="stop-color:#6E6F70"></stop> <stop offset="0.3301" style="stop-color:#818181"></stop> <stop offset="0.4719" style="stop-color:#909090"></stop> <stop offset="0.6893" style="stop-color:#B5B5B4"></stop> <stop offset="0.9951" style="stop-color:#E0E1E0"></stop> </radialGradient> <path class="st7" d="M104.8,126.5l6.4-17.8h-1.6H42c-2.1,0-2.1-0.1-2.1-2.4V33c0-1.9,0.3-3.6,3.8-3.6h24.6h1.9v-1.8V1.9V0l0,0h-1.9 h-29C20.4,0,9.1,9.1,9.1,24.5v85.6c0,17.9,10.8,28.1,29.6,28.1h43.8C100.8,138.2,104.8,126.5,104.8,126.5z"></path> <linearGradient id="SVGID_9_" gradientUnits="userSpaceOnUse" x1="46.3861" y1="-11.3121" x2="10.3372" y2="125.585"> <stop offset="0" style="stop-color:#DDDDDC"></stop> <stop offset="1" style="stop-color:#9B9EA1"></stop> </linearGradient> <path class="st8" d="M70.1,0H39.3C20.4,0,9.1,9.1,9.1,24.5v71.3c0,17.9,10.8,28.1,29.6,28.1h1l-0.1,0c-9.4,0-14.8-5.1-14.8-14.1 V27.4c0-7.7,5.7-12.2,15.1-12.2h15.8C63.6,15.2,70,8,70,0L70.1,0z"></path> <g> <linearGradient id="SVGID_10_" gradientUnits="userSpaceOnUse" x1="30.296" y1="80.1925" x2="86.2005" y2="146.0646"> <stop offset="0" style="stop-color:#E7E7E7"></stop> <stop offset="1" style="stop-color:#818181"></stop> </linearGradient> <path class="st9" d="M111.1,108.8c-5.6,15.5-38.3,15-38.3,15l-34.2,0c-18.6,0-29.3-10.1-29.5-27.7l0,0v13.9 c0,17.9,10.8,28.1,29.6,28.1H82c18.5,0,23.1-12.7,23.1-12.7L111.1,108.8L111.1,108.8L111.1,108.8z"></path> </g> <radialGradient id="SVGID_11_" cx="25.4566" cy="63.9465" r="48.1046" gradientUnits="userSpaceOnUse"> <stop offset="0" style="stop-color:#EBEBEB"></stop> <stop offset="0.4806" style="stop-color:#EBEBEB"></stop> <stop offset="1" style="stop-color:#DDE0E2"></stop> </radialGradient> <path class="st10" d="M70.5,123.8l-31,0c-9.8,0-15.5-5.4-15.5-14.7V28c0-7.8,5.7-12.8,15.6-12.8l14.3,0l2.5,0.1L39,15.9 c-7.7,0-13.6,4.8-13.6,12.1v81.1c0,8.5,5.2,13.4,14.1,13.4L70.5,123.8L70.5,123.8z"></path> <radialGradient id="SVGID_12_" cx="95.0349" cy="68.6782" r="50.5624" gradientTransform="matrix(0.8879 -0.46 0.3323 0.6414 -12.1708 68.3417)" gradientUnits="userSpaceOnUse"> <stop offset="0" style="stop-color:#E76B25"></stop> <stop offset="1" style="stop-color:#E5AE30"></stop> </radialGradient> <path class="st11" d="M112.2,99.6c13.3,0,18.4-12.4,18.4-12.4l6.3-17H94.6c0.9-1,1.8-1.5,2.1-1.7l14.2-7.8 c12-5.9,22.6-19.9,17.3-37.2C123.3,7.5,107.9,0.9,89,0.2L76,0v29.4H88c7.1,0,10.6,0.4,11.6,2.2c0.4,1.3-1.7,2.7-1.7,2.7l-15.3,8.4 c-9.7,5.3-20,17.1-20,34.5v22.4H112.2z"></path> <radialGradient id="SVGID_13_" cx="99.9949" cy="20.321" r="48.3022" fx="97.1127" fy="20.0298" gradientTransform="matrix(-0.5748 0.8183 -1.6799 -1.18 191.6099 -37.5242)" gradientUnits="userSpaceOnUse"> <stop offset="0" style="stop-color:#A25426"></stop> <stop offset="0.3301" style="stop-color:#E76B25"></stop> <stop offset="0.6553" style="stop-color:#CE802B"></stop> <stop offset="1" style="stop-color:#F0A61F"></stop> </radialGradient> <path class="st12" d="M93.7,14.7c0,0,16.1-1,20.3,13c3.8,12.8-10.9,20.1-10.9,20.1l-13.6,7.8c-1.6,0.9-12.3,7.3-12.3,21.6v7.7h33.3 c0,0,21,0.4,26.4-14.7l-6.3,17c0,0-5.1,12.4-18.4,12.4H62.5V77.2c0-17.4,10.3-29.2,20-34.5l15.3-8.4c0,0,2.2-1.4,1.7-2.7 c-1-1.8-4.5-2.2-11.6-2.2H76V0C76,0,77.7,14.3,93.7,14.7"></path> <radialGradient id="SVGID_14_" cx="82.6157" cy="91.3756" r="38.8559" gradientTransform="matrix(0.2863 0.9581 -1.323 0.3954 179.8491 -23.9088)" gradientUnits="userSpaceOnUse"> <stop offset="0" style="stop-color:#A25426"></stop> <stop offset="0.4903" style="stop-color:#E76B25"></stop> <stop offset="1" style="stop-color:#F0A61F"></stop> </radialGradient> <path class="st13" d="M77.6,84.8c-15,0-15,14.8-15,14.8h49.7c13.3,0,18.4-12.4,18.4-12.4l6.3-17c-5.4,15.1-26.4,14.7-26.4,14.7 L77.6,84.8z"></path> <path class="st14" d="M89.9,56.2l13.6-7.8c0.2-0.1,15.2-7.7,11.3-20.8c-4.3-14.4-20.8-12.8-21-12.8c0.2,0,15.2-1.2,19.7,13.2 c3.8,12-10.4,19.2-10.6,19.3L89.3,55c-1.3,0.7-12.7,7.4-12.7,22.2v7.1c-4.7,0.3-8.1,2.3-10.7,5.6c2.4-3.1,6.5-4.6,11.1-4.7 l28.8-0.3h-3.2l-24.7-0.7v-7C77.9,63.1,88.7,56.8,89.9,56.2z"></path> </g> </svg> 