<svg xmlns="http://www.w3.org/2000/svg" viewBox="744 459 87.341 41.496" width="120">
  <defs>
    <style>
      .cls-1 {
        fill: #fff;
      }
    </style>
  </defs>
  <path id="logo_AF" class="cls-1" d="M-575.782-388.589c-.257-.051-.5-.12-.7-.171A3.689,3.689,0,0,1-577-389a1.083,1.083,0,0,1-.291-.206.514.514,0,0,1-.12-.257,3.543,3.543,0,0,1-.034-.5,2.187,2.187,0,0,1,.017-.359,1.01,1.01,0,0,1,.034-.239.373.373,0,0,1,.086-.137.254.254,0,0,1,.12-.017.383.383,0,0,1,.257.1c.121.068.274.154.445.239a6.842,6.842,0,0,0,.668.257,3.257,3.257,0,0,0,.873.12,1.643,1.643,0,0,0,.6-.086,1.545,1.545,0,0,0,.445-.222.959.959,0,0,0,.274-.359,1.439,1.439,0,0,0,.086-.5.733.733,0,0,0-.172-.5,1.366,1.366,0,0,0-.427-.393,3.356,3.356,0,0,0-.6-.309c-.239-.1-.462-.205-.685-.325a6.817,6.817,0,0,1-.7-.359,2.54,2.54,0,0,1-.6-.531,2.133,2.133,0,0,1-.445-.685,2.6,2.6,0,0,1-.171-.958,2.61,2.61,0,0,1,.239-1.13,2.144,2.144,0,0,1,.651-.8,2.863,2.863,0,0,1,.941-.48,4.351,4.351,0,0,1,1.165-.154c.205,0,.427.017.633.034a3.064,3.064,0,0,1,.6.137,4.332,4.332,0,0,1,.5.188.836.836,0,0,1,.274.171.675.675,0,0,1,.1.121.247.247,0,0,1,.034.12c.017.051.017.12.034.205v.651a.892.892,0,0,1-.034.239c-.017.051-.034.1-.068.12a.144.144,0,0,1-.12.034.807.807,0,0,1-.239-.085c-.1-.068-.24-.137-.394-.222-.154-.068-.359-.137-.565-.205a2.317,2.317,0,0,0-.7-.1,2.071,2.071,0,0,0-.514.068,1.129,1.129,0,0,0-.376.205.679.679,0,0,0-.223.308.924.924,0,0,0-.068.377.867.867,0,0,0,.154.513,1.4,1.4,0,0,0,.445.377,3.406,3.406,0,0,0,.617.325c.222.1.462.205.7.326a5.477,5.477,0,0,1,.7.376,2.494,2.494,0,0,1,.617.514,2.314,2.314,0,0,1,.428.685,2.453,2.453,0,0,1,.188.958,2.615,2.615,0,0,1-.274,1.232,2.582,2.582,0,0,1-.7.89,3.323,3.323,0,0,1-1.045.531,4.389,4.389,0,0,1-1.283.188A4.53,4.53,0,0,1-575.782-388.589Zm-9.912,0c-.257-.051-.5-.12-.7-.171a3.688,3.688,0,0,1-.514-.239,1.081,1.081,0,0,1-.291-.206.719.719,0,0,1-.137-.257,2.04,2.04,0,0,1-.034-.5v-.359c.017-.086.034-.171.051-.239a.955.955,0,0,1,.085-.137.254.254,0,0,1,.12-.017.453.453,0,0,1,.274.1c.12.068.275.154.445.239a6.4,6.4,0,0,0,.651.257,3.392,3.392,0,0,0,.89.12,1.635,1.635,0,0,0,.6-.086,1.539,1.539,0,0,0,.445-.222.958.958,0,0,0,.274-.359,1.123,1.123,0,0,0,.1-.5.733.733,0,0,0-.171-.5,1.586,1.586,0,0,0-.427-.393,3.012,3.012,0,0,0-.617-.309c-.222-.1-.463-.205-.685-.325-.239-.12-.479-.222-.7-.359a2.54,2.54,0,0,1-.6-.531,2.915,2.915,0,0,1-.445-.685,2.618,2.618,0,0,1-.154-.958,2.385,2.385,0,0,1,.239-1.13,2.144,2.144,0,0,1,.651-.8,2.863,2.863,0,0,1,.941-.48,4.253,4.253,0,0,1,1.164-.154c.223,0,.428.017.634.034a3.4,3.4,0,0,1,.6.137,3.387,3.387,0,0,1,.5.188,1.287,1.287,0,0,1,.291.171c.034.052.068.069.086.121a.835.835,0,0,1,.051.12.705.705,0,0,1,.017.205v.651c-.017.1-.017.171-.034.239-.034.051-.051.1-.086.12a.144.144,0,0,1-.12.034.619.619,0,0,1-.222-.085c-.121-.068-.257-.137-.411-.222-.171-.068-.342-.137-.565-.205a2.206,2.206,0,0,0-.684-.1,2.351,2.351,0,0,0-.531.068,1.332,1.332,0,0,0-.377.205.841.841,0,0,0-.222.308.924.924,0,0,0-.068.377.867.867,0,0,0,.154.513,1.517,1.517,0,0,0,.428.377,4.1,4.1,0,0,0,.617.325c.239.1.479.205.7.326a7.154,7.154,0,0,1,.719.376,2.848,2.848,0,0,1,.616.514,2.332,2.332,0,0,1,.428.685,2.18,2.18,0,0,1,.188.958,2.826,2.826,0,0,1-.274,1.232,2.427,2.427,0,0,1-.718.89,3.149,3.149,0,0,1-1.045.531,4.359,4.359,0,0,1-1.266.188A4.388,4.388,0,0,1-585.694-388.589Zm-51.1.017c-.12-.017-.205-.034-.291-.051a.211.211,0,0,1-.138-.086.228.228,0,0,1-.051-.137v-8.08a.583.583,0,0,1,.155-.445.61.61,0,0,1,.393-.137h4.194a.243.243,0,0,1,.1.034.306.306,0,0,1,.086.12.715.715,0,0,1,.051.223,3.62,3.62,0,0,1,.034.41,1.987,1.987,0,0,1-.017.343.847.847,0,0,1-.051.222.218.218,0,0,1-.085.12c-.034.017-.068.051-.1.051h-2.944v2.4h2.739a.435.435,0,0,1,.12.034,1.172,1.172,0,0,1,.086.12.506.506,0,0,1,.051.205,1.987,1.987,0,0,1,.017.343,1.971,1.971,0,0,1-.017.342c-.017.086-.034.171-.051.223a.169.169,0,0,1-.086.12.144.144,0,0,1-.12.034h-2.739v3.321a.321.321,0,0,1-.034.137.273.273,0,0,1-.138.086c-.086.017-.171.034-.291.051a3.186,3.186,0,0,1-.445.017C-636.538-388.555-636.674-388.572-636.794-388.572Zm27.425-.086c-.1-.017-.189-.034-.257-.051a.218.218,0,0,1-.12-.086.205.205,0,0,1-.034-.137v-8.012a.619.619,0,0,1,.188-.48.77.77,0,0,1,.463-.171h.976a2.683,2.683,0,0,1,.445.051.717.717,0,0,1,.325.154,1.358,1.358,0,0,1,.274.275,3.42,3.42,0,0,1,.257.445l1.729,3.253c.1.205.205.394.308.582s.188.393.292.582l.256.564c.086.188.171.377.257.548-.017-.308-.017-.651-.034-1.01V-397.3c0-.051,0-.1.034-.12a.949.949,0,0,1,.137-.1.841.841,0,0,1,.24-.051,2.784,2.784,0,0,1,.41-.017c.154,0,.291.017.394.017a.969.969,0,0,1,.256.051.37.37,0,0,1,.12.1.316.316,0,0,1,.034.12v8.012a.658.658,0,0,1-.051.275.467.467,0,0,1-.154.205.922.922,0,0,1-.222.12,1.337,1.337,0,0,1-.257.034h-.77a1.334,1.334,0,0,1-.41-.051.608.608,0,0,1-.326-.171,2.029,2.029,0,0,1-.291-.343,2.781,2.781,0,0,1-.308-.564l-2.226-4.178c-.12-.257-.256-.513-.394-.788-.137-.291-.257-.581-.359-.839h-.017l.051.977v5.684a.205.205,0,0,1-.034.137.218.218,0,0,1-.12.086,1.639,1.639,0,0,1-.256.051,2.8,2.8,0,0,1-.411.017C-609.13-388.641-609.267-388.658-609.369-388.658Zm-8.56,0a2.686,2.686,0,0,1-.274-.051.33.33,0,0,1-.154-.086.144.144,0,0,1-.034-.12v-7.19h-2.226a.155.155,0,0,1-.12-.051c-.034-.017-.051-.068-.086-.12a.882.882,0,0,1-.051-.223,2.074,2.074,0,0,1-.017-.342,2.3,2.3,0,0,1,.017-.359.735.735,0,0,1,.051-.223.308.308,0,0,1,.086-.12.317.317,0,0,1,.12-.034h6.282a.242.242,0,0,1,.1.034.719.719,0,0,1,.086.12.709.709,0,0,1,.051.223,2.3,2.3,0,0,1,.017.359,1.971,1.971,0,0,1-.017.342.845.845,0,0,1-.051.223.218.218,0,0,1-.086.12.565.565,0,0,1-.1.051h-2.242v7.19a.155.155,0,0,1-.051.12.23.23,0,0,1-.155.086,2.686,2.686,0,0,1-.274.051,3.309,3.309,0,0,1-.445.017C-617.673-388.641-617.81-388.658-617.929-388.658Zm-8.919,0a2.686,2.686,0,0,1-.274-.051.26.26,0,0,1-.154-.086.155.155,0,0,1-.051-.12v-8.406a.273.273,0,0,1,.051-.137.331.331,0,0,1,.154-.085.972.972,0,0,1,.274-.051,3.31,3.31,0,0,1,.445-.017,3.436,3.436,0,0,1,.445.017,2.677,2.677,0,0,1,.274.051.33.33,0,0,1,.155.085.327.327,0,0,1,.051.137v8.406a.155.155,0,0,1-.051.12.23.23,0,0,1-.155.086,2.686,2.686,0,0,1-.274.051,3.442,3.442,0,0,1-.445.017C-626.575-388.641-626.729-388.658-626.848-388.658Zm30.146-.017a.61.61,0,0,1-.393-.137.587.587,0,0,1-.155-.445v-7.754a.586.586,0,0,1,.155-.446.61.61,0,0,1,.393-.137h4.451a.247.247,0,0,1,.12.034c.034.017.051.068.068.12a.608.608,0,0,1,.051.222,1.987,1.987,0,0,1,.017.343,1.863,1.863,0,0,1-.017.325.334.334,0,0,1-.051.206.239.239,0,0,1-.068.12.144.144,0,0,1-.12.034h-3.184v2.173h2.7a.228.228,0,0,1,.12.051.175.175,0,0,1,.086.1.607.607,0,0,1,.051.222,1.863,1.863,0,0,1,.017.325c0,.137-.017.24-.017.343a.6.6,0,0,1-.051.205.175.175,0,0,1-.086.1.163.163,0,0,1-.12.034h-2.7v2.5h3.218a.436.436,0,0,1,.12.034.728.728,0,0,1,.086.12c.017.068.034.137.051.223,0,.137.017.257.017.376a2.092,2.092,0,0,1-.017.343,1.777,1.777,0,0,1-.051.205c-.034.068-.051.1-.086.12a.317.317,0,0,1-.12.034Zm29.137-17.684-5.2-8.114-5.1,8.1h-5.991l8.046-11.931L-583.589-430h6.163l4.639,7.755,5.051-7.755h6.077l-7.995,11.693,7.995,11.948Zm-53.171-2.054c-1.815-1.884-1.695-4.417-1.695-8.354V-430h5.272v13.251c0,1.968-.017,3.543.634,4.536.77,1.216,2.465,1.626,5.478,1.626h4.314v4.211h-6.608l-.471,0C-615.332-406.374-618.851-406.482-620.736-408.413Zm27.509,2.037c-4.006,0-6.145-.1-8.936-2.311q-3.491-2.773-3.492-9.62c0-3.955,1.044-6.917,3.047-8.953,2.156-2.191,4.3-2.74,7.447-2.74h8.491v4.211h-6.557c-2.722,0-3.8.1-5.187,1.165a5.868,5.868,0,0,0-1.541,4.4h10.871V-416h-10.854a5.316,5.316,0,0,0,1.763,4.246c1.37,1.181,2.722,1.164,5.17,1.164h6.333v4.211Zm-36.309,0-2.277-5.477h-9l-2.26,5.477H-649L-639.225-430h5.769l9.792,23.624Zm-10.152-9.707h6.728l-3.356-8.251Z" transform="translate(1393 889)"/>
</svg>
