<?xml version="1.0" encoding="utf-8"?>
<!-- Generator: Adobe Illustrator 24.3.0, SVG Export Plug-In . SVG Version: 6.00 Build 0)  -->
<svg version="1.1" id="Layer_1" xmlns="http://www.w3.org/2000/svg" xmlns:xlink="http://www.w3.org/1999/xlink" x="0px"
	y="0px" width="1124.7px" height="186px" viewBox="0 0 1124.7 186" style="enable-background:new 0 0 1124.7 186;"
	xml:space="preserve">
	<style type="text/css">
		.st0 {
			fill: #ffffff;
		}

		.st1 {
			fill: #ED1F24;
		}

		#i1,
		#i2,
		#i3,
		#i4,
		#i5,
		#i6,
		#i7,
		#i8,
		#i9,
		#i10 {
			opacity: 0;
		}


	</style>
	<g>
		<path id="i10" class="st0" d="M4.5,56v122.6h30.2V56H4.5z">
			<animate id="i10_an" attributeName="opacity" values="0;1;" begin="i2_an.end+0.025" dur="0.05s" fill="freeze" />
		</path>
		<path id="i9" class="st0" d="M174.4,5.4v173.1h-28.2l-2-16.8c-9.4,14.6-24.5,19.6-39.4,19.6c-35.9,0-62.9-23.8-62.9-63.9
		c0-42.1,26.5-63.9,62.2-63.9c12.9,0,32.9,6.9,40.1,19.6V5.4H174.4z M72.1,117.4c0,21.3,15.4,35.9,34.7,35.9
		c19.1,0,35.4-13.9,35.4-35.9c0-21.3-16.3-35.7-35.4-35.7C87.5,81.7,72.1,95.3,72.1,117.4z">
			<animate id="i9_an" attributeName="opacity" values="0;1;" begin="i10_an.end+0.05" dur="0.05s" fill="freeze" />
		</path>
		<path id="i8" class="st0" d="M212.8,128.3c2,15.1,15.1,26,36.4,26c11.1,0,25.8-4.2,32.7-11.4l19.3,19.1
		c-12.9,13.4-33.9,19.8-52.5,19.8c-42.1,0-67.1-26-67.1-65.1c0-37.2,25.3-63.9,64.9-63.9c40.9,0,66.4,25.3,61.7,75.5L212.8,128.3
		L212.8,128.3z M279.2,103.3c-2-15.9-14.4-23.8-31.7-23.8c-16.3,0-29.7,7.9-34.2,23.8H279.2z">
			<animate id="i8_an" attributeName="opacity" values="0;1;" begin="i9_an.end+0.075" dur="0.05s" fill="freeze" />
		</path>
		<path id="i7" class="st0" d="M418.9,56.5h29v122.1h-28.5l-1.5-17.8c-6.9,14.4-26,21.3-39.6,21.5c-36.2,0.2-62.9-22-62.9-64.9
		c0-42.1,28-64.2,63.7-63.9c16.3,0,32,7.7,38.9,19.8L418.9,56.5z M345.6,117.4c0,23.3,16.1,37.2,36.2,37.2c47.6,0,47.6-74.1,0-74.1
		C361.7,80.5,345.6,94.1,345.6,117.4z">
			<animate id="i7_an" attributeName="opacity" values="0;1;" begin="i8_an.end+0.1" dur="0.05s" fill="freeze" />
		</path>
		<path id="i6" class="st0" d="M540.7,88.9C532,80.7,522.1,78,510.5,78c-14.4,0-22.3,4.5-22.3,12.1c0,7.9,7.2,12.4,22.8,13.4
		c23,1.5,52.3,6.7,52.3,39.1c0,21.5-17.6,40.1-52.5,40.1c-19.3,0-38.6-3.2-56.5-21.8l14.9-21.5c8.7,9.7,28.5,16.8,42.1,17.1
		c11.4,0.2,22-5.7,22-14.6c0-8.4-6.9-11.9-24.3-12.9c-23-1.7-50.5-10.2-50.5-37.9c0-28.2,29.2-38.1,51.5-38.1
		c19.1,0,33.4,3.7,47.6,16.1L540.7,88.9z">
			<animate id="i6_an" attributeName="opacity" values="0;1;" begin="i7_an.end+0.125" dur="0.05s" fill="freeze" />
		</path>
		<path id="i5" class="st0" d="M676.4,56.2l26.7,91.9l28-91.9h33.4L722,179.1h-35.2l-12.6-36.2L663.3,102l-10.9,40.9l-12.6,36.2
		h-35.2L561.7,56.2h33.7l28,91.9l26.5-91.9C649.9,56.2,676.4,56.2,676.4,56.2z">
			<animate id="i5_an" attributeName="opacity" values="0;1;" begin="i6_an.end+0.15" dur="0.05s" fill="freeze" />
		</path>
		<path id="i4" class="st0" d="M887.1,117.6c0,35.2-24,63.7-63.7,63.7c-39.6,0-63.4-28.5-63.4-63.7c0-34.9,24.3-63.7,63.2-63.7
		C862.1,54,887.1,82.7,887.1,117.6z M790.2,117.6c0,18.6,11.1,35.9,33.2,35.9s33.2-17.3,33.2-35.9c0-18.3-12.9-36.2-33.2-36.2
		C801.6,81.5,790.2,99.3,790.2,117.6z">
			<animate id="i4_an" attributeName="opacity" values="0;1;" begin="i5_an.end+0.15" dur="0.05s" fill="freeze" />
		</path>
		<path id="i3" class="st0" d="M923.5,56.5l2.2,14.1c9.4-15.1,22-17.3,34.4-17.3c12.6,0,24.8,5,31.5,11.6L978,91.1
		c-6.2-5.2-11.9-7.9-21.8-7.9c-15.9,0-30.5,8.4-30.5,31v64.4h-30.2V56.5H923.5z">
			<animate id="i3_an" attributeName="opacity" values="0;1;" begin="i4_an.end+0.15" dur="0.05s" fill="freeze" />
		</path>
	</g>
	<g id="i2">
		<path class="st1"
			d="M558.2,147.2l-22.7,33.7h-40l43-61.3l-45.7-62.2h42.6l22.7,32.7l22-32.7h41.2l-44,62.2L558.2,147.2z" />
		<animate id="i2_an" attributeName="opacity" values="0;1;" begin="0.6s" dur="0.3s" fill="freeze" />
        <animateMotion id="i2_an_move" path="M0 0 h 500" begin="i7_an.end+0.125" dur="0.6s" fill="freeze"></animateMotion>
	</g>
	<g id="i1">
		<path class="st1" d="M560.7,151.4l19.5-27.8l40.5,57.3h-41.2L560.7,151.4z" />
		<animate id="i1_an" attributeName="opacity" values="0;1;" begin="0s" dur="0.3s" fill="freeze" />
        <animateMotion id="i1_an_move" path="M0 0 h 500" begin="i7_an.end+0.125" dur="0.6s" fill="freeze"></animateMotion>
	</g>
</svg>