<?xml version="1.0" encoding="UTF-8"?>
<svg width="312px" height="84px" viewBox="0 0 312 84" version="1.1" xmlns="http://www.w3.org/2000/svg" xmlns:xlink="http://www.w3.org/1999/xlink">
    <title>HealthLogo/Mint-Navy</title>
    <g id="HealthLogo/Mint-Navy" stroke="none" stroke-width="1" fill="none" fill-rule="evenodd">
        <g id="Group" transform="translate(0.000000, 0.000000)" fill-rule="nonzero">
            <g>
                <g fill="#6BFFDC" id="Logomark/Mint">
                    <path d="M15.1843275,18.0627481 C21.1685611,17.6567334 27.4173917,20.1090545 31.4868867,24.4127396 L31.6885341,24.629462 L31.8929527,24.8563255 C35.4860142,28.9133552 37.8549491,35.2854659 38.0565163,41.0056211 C38.2756892,47.2253992 35.9039867,51.403276 31.3199835,51.403276 C24.2758751,51.403276 22.6423372,41.2298189 26.7246096,31.4301136 C26.8749466,31.0266192 27.0481345,30.8045404 27.2441731,30.7638773 C27.4402118,30.7232141 27.6266751,30.8143602 27.8035629,31.0373155 C29.3600781,33.5503846 30.1669503,34.8652382 30.2241797,34.9818764 C30.3100237,35.1568337 30.3100237,35.1396821 30.1021164,35.7865427 L29.9616868,36.2242175 C29.939095,36.29695 29.916909,36.3695694 29.8951276,36.442066 L29.7692849,36.8754965 C29.7491171,36.9474638 29.7293516,37.0192892 29.7099872,37.090963 L29.5986035,37.5191097 L29.4967882,37.9431565 L29.4044844,38.3626415 C29.3752954,38.5016582 29.3476822,38.6398376 29.3216353,38.7771028 L29.2481839,39.1860784 L29.1840735,39.5891064 C29.1642539,39.7224065 29.1459816,39.8546384 29.1292472,39.985725 L29.0836482,40.3754721 C29.0699801,40.5041912 29.0578404,40.6316881 29.0472197,40.7578858 L29.0199047,41.1325043 L29.0016465,41.4988656 C28.8916561,44.3954952 29.645657,46.4550894 31.1326847,46.6133778 L31.2265773,46.6207856 L31.3199835,46.6231858 C32.8053577,46.6231858 33.6756603,44.8845972 33.6355075,41.9087047 C33.59424,38.8501863 32.5762631,35.0970862 30.8822701,31.9965241 C24.9605718,21.1609671 9.87394891,20.4326247 5.26701819,31.2281295 L5.13064222,31.5587948 C4.96612682,32.0116474 4.55634651,32.0604434 3.76763708,31.8181863 L3.54303915,31.7449849 L3.29904879,31.6578605 L3.03506348,31.5573225 L2.75048066,31.4438804 L2.28366805,31.2506363 L1.95609149,31.111357 L1.65395275,30.9791458 L1.37722814,30.8531364 L1.12589392,30.7324624 C0.21108076,30.2789982 -0.144608208,29.9240423 0.0528164616,29.4480078 C2.92470833,22.4219368 8.46559975,18.5185964 15.1843275,18.0627481 Z M33.247605,22.4935643 C37.6497518,19.0172701 43.5712305,17.3775802 49.0184018,18.2115307 C54.9663614,19.1221508 59.7974316,22.8230376 62.4557755,29.0408916 L62.57879,29.3341959 C62.7770027,29.7612593 62.56396,30.0552345 61.8360615,30.4380832 L61.6247009,30.5448667 L61.3873432,30.6570578 L61.1235214,30.7756569 L60.8327686,30.9016648 L60.3451219,31.1067566 L59.7163885,31.3641808 L59.4390707,31.4735173 L59.1850308,31.569562 L58.9532027,31.6520338 L58.7425203,31.7206517 C58.0408933,31.9362419 57.7082302,31.8921012 57.5388479,31.5340013 L57.515739,31.4807026 C54.1095619,22.9657356 44.1030291,20.9940228 36.6012792,26.4371313 L36.3283817,26.6334537 C36.0966568,26.759804 35.8972807,26.7386236 35.7302533,26.5699125 C35.563226,26.4012014 35.1748508,25.8932064 34.5651279,25.0459275 C33.7202998,23.9464442 33.2296989,23.2896166 33.0933253,23.0754447 C32.9569516,22.8612728 33.0083782,22.6673127 33.247605,22.4935643 Z" id="Shape"></path>
                    <path d="M31.4127241,-1.09964947e-15 C36.2710008,-1.09964947e-15 40.2525735,3.93674209 40.2525735,8.77303275 C40.2525735,13.6246103 36.3015115,17.5460655 31.4127241,17.5460655 C26.5244628,17.5460655 22.5728746,13.6243458 22.5728746,8.77303275 C22.5728746,3.92171975 26.5244628,-1.09964947e-15 31.4127241,-1.09964947e-15 Z M31.4127241,4.54959777 C29.0783144,4.54959777 27.1571228,6.45626791 27.1571228,8.77303275 C27.1571228,11.0897976 29.0783144,12.9964677 31.4127241,12.9964677 C33.7327736,12.9964677 35.6268787,11.1040649 35.6683253,8.77303275 C35.6683253,6.45598411 33.7476404,4.54959777 31.4127241,4.54959777 Z" id="Shape"></path>
                </g>
                <g transform="translate(72.359838, 3.241776)" fill="#12284D">
                    <path d="M0.366918367,35.0371224 L0.366918367,15.5227959 L8.50916327,15.5227959 L8.50916327,34.242 C8.50916327,38.7811224 11.2232449,41.8223265 15.200449,41.8223265 C19.178449,41.8223265 21.8925306,38.8272857 21.8925306,34.242 L21.8925306,15.5227959 L30.0347755,15.5227959 L30.0347755,35.0371224 C30.0347755,42.9931224 24.1386122,48.2812041 15.1996531,48.2812041 C6.31004082,48.2812041 0.366918367,42.9939184 0.366918367,35.0371224 Z" id="Path"></path>
                    <path d="M83.2904694,26.8948776 L83.2904694,47.6723265 L75.1482245,47.6723265 L75.1482245,28.2519184 C75.1482245,24.1338367 72.7620612,21.4197551 69.1119796,21.4197551 C65.0408571,21.4197551 62.3267755,24.7427143 62.3267755,29.796 L62.3267755,47.6723265 L54.1845306,47.6723265 L54.1845306,28.2519184 C54.1845306,24.1338367 51.7975714,21.4197551 48.1005306,21.4197551 C44.0294082,21.4197551 41.3153265,24.7427143 41.3153265,29.796 L41.3153265,47.6723265 L33.1730816,47.6723265 L33.1730816,15.570551 L41.3153265,15.570551 L41.3153265,21.0456735 L41.4554082,21.0456735 C43.1873265,17.3486327 47.3523673,14.9616735 51.9846122,14.9616735 C56.6176531,14.9616735 59.9867755,17.5356735 61.4377347,21.7938367 L61.5778163,21.7938367 C63.6838163,17.6757551 68.0828571,14.9616735 72.949898,14.9616735 C79.1723878,14.9616735 83.2904694,19.7347959 83.2904694,26.8948776 Z" id="Path"></path>
                    <path d="M119.839041,31.6218367 C119.839041,41.6360816 114.410878,48.2812041 106.221673,48.2812041 C101.167592,48.2812041 96.6276735,45.8942449 94.8503878,41.9632041 L94.7095102,41.9632041 L94.7095102,47.6723265 L86.5672653,47.6723265 L86.5672653,0.314387755 L94.7095102,0.314387755 L94.7095102,21.2788776 L94.8503878,21.2788776 C96.6754286,17.3478367 101.168388,14.9608776 106.17551,14.9608776 C114.363918,14.9616735 119.839041,21.6067959 119.839041,31.6218367 Z M111.602878,31.6218367 C111.602878,25.4908776 108.233755,21.3258367 103.178878,21.3258367 C98.1247959,21.3258367 94.7556735,25.4439184 94.7556735,31.6218367 C94.7556735,37.7050408 98.1247959,41.8223265 103.178878,41.8223265 C108.186796,41.8231224 111.602878,37.7050408 111.602878,31.6218367 Z" id="Shape"></path>
                    <path d="M145.529694,15.570551 L145.529694,23.058551 C144.125694,22.4966327 141.879612,22.1217551 139.91449,22.1217551 C134.672571,22.1217551 131.163367,26.2867959 131.163367,32.6509592 L131.163367,47.6723265 L123.021122,47.6723265 L123.021122,15.570551 L131.210327,15.570551 L131.210327,22.2156735 L131.351204,22.2156735 C132.989204,17.8635918 137.060327,14.9624674 141.55249,14.9624674 C142.909531,14.9616735 144.500571,15.1956735 145.529694,15.570551 Z" id="Path"></path>
                    <path d="M179.832184,33.0258367 L154.982816,33.0258367 C155.403857,38.7341633 158.726816,42.4312041 163.546898,42.4312041 C167.524898,42.4312041 170.94098,40.092 171.83002,36.5350408 L179.692102,36.5350408 C178.287306,43.6012041 171.83002,48.2812041 163.499939,48.2812041 C153.578816,48.2812041 147.027612,41.5899184 147.027612,31.6218367 C147.027612,21.6067959 153.625776,14.9616735 163.499939,14.9616735 C173.280184,14.9616735 179.785224,21.7468776 179.785224,31.9481633 L179.785224,33.0258367 L179.832184,33.0258367 Z M155.076735,28.9077551 L171.736102,28.9077551 C170.94098,23.8059184 167.805857,20.5307143 163.499939,20.5307143 C159.101694,20.5307143 155.965776,23.8059184 155.076735,28.9077551 Z" id="Shape"></path>
                    <polygon id="Path" points="183.108184 0.315183673 191.250429 0.315183673 191.250429 47.6731224 183.108184 47.6731224"></polygon>
                    <polygon id="Path" points="194.713469 0.315183673 202.855714 0.315183673 202.855714 47.6731224 194.713469 47.6731224"></polygon>
                    <path d="M239.451245,15.570551 L239.451245,47.6723265 L231.309,47.6723265 L231.309,41.9632041 L231.168122,41.9632041 C229.390041,45.893449 224.850122,48.2812041 219.796837,48.2812041 C211.607633,48.2812041 206.13251,41.6360816 206.13251,31.6218367 C206.13251,21.6067959 211.654592,14.9616735 219.843796,14.9616735 C224.803959,14.9616735 229.296918,17.3486327 231.168918,21.2796735 L231.309796,21.2796735 L231.309796,15.570551 L239.451245,15.570551 L239.451245,15.570551 Z M231.308204,31.6218367 C231.308204,25.4908776 227.939082,21.3258367 222.885,21.3258367 C217.830122,21.3258367 214.461,25.4439184 214.461,31.6218367 C214.461,37.7050408 217.830122,41.8223265 222.885,41.8223265 C227.939082,41.8231224 231.308204,37.7050408 231.308204,31.6218367 Z" id="Shape"></path>
                </g>
            </g>
        </g>
        <path d="M235.256107,72.4434981 L235.256107,83.3712807 L230.923849,83.3712807 L230.923849,73.0990618 C230.923849,70.8672357 229.512299,69.357609 227.379019,69.357609 C225.016737,69.357609 223.408095,71.1628729 223.408095,73.9198069 L223.408095,83.3712807 L219.076307,83.3712807 L219.076307,58.1013406 L223.408095,58.1013406 L223.408095,69.1605175 L223.474262,69.1605175 C224.49116,67.1924186 226.85438,65.9122627 229.414223,65.9122627 C232.925735,65.9122627 235.256107,68.5044846 235.256107,72.4434981" id="Fill-17" fill="#12284D"></path>
        <path d="M241.26078,73.361428 L250.155236,73.361428 C249.727735,70.6368733 248.054804,68.8977759 245.757281,68.8977759 C243.39406,68.8977759 241.720191,70.6368733 241.26078,73.361428 L241.26078,73.361428 Z M254.453706,75.5599363 L241.195552,75.5599363 C241.425492,78.6120382 243.197438,80.5820142 245.757281,80.5820142 C247.890092,80.5820142 249.695356,79.3347069 250.187615,77.4308973 L254.388948,77.4308973 C253.633431,81.2056679 250.187615,83.6993441 245.757281,83.6993441 C240.472883,83.6993441 236.96184,80.1216649 236.96184,74.8058268 C236.96184,69.4566709 240.472883,65.9123096 245.757281,65.9123096 C250.975512,65.9123096 254.453706,69.5218988 254.453706,74.9700697 L254.453706,75.5599363 Z" id="Fill-18" fill="#12284D"></path>
        <path d="M269.264097,74.8058738 C269.264097,71.524301 267.458833,69.3248543 264.768065,69.3248543 C262.076828,69.3248543 260.271565,71.524301 260.271565,74.8058738 C260.271565,78.0555364 262.076828,80.2540447 264.768065,80.2540447 C267.458833,80.2540447 269.264097,78.0555364 269.264097,74.8058738 L269.264097,74.8058738 Z M273.595885,66.2394345 L273.595885,83.3713745 L269.264097,83.3713745 L269.264097,80.3192726 L269.1984,80.3192726 C268.24626,82.4201736 265.817812,83.699391 263.127044,83.699391 C258.761938,83.699391 255.84123,80.1550297 255.84123,74.8058738 C255.84123,69.4567178 258.794787,65.9123565 263.159893,65.9123565 C265.817812,65.9123565 268.21435,67.1920432 269.1984,69.292475 L269.264097,69.292475 L269.264097,66.2394345 L273.595885,66.2394345 Z" id="Fill-19" fill="#12284D"></path>
        <polygon id="Fill-20" fill="#12284D" points="275.675576 83.3715622 280.007834 83.3715622 280.007834 58.1011529 275.675576 58.1011529"></polygon>
        <path d="M288.376571,69.292475 L288.376571,78.0222186 C288.376571,79.4328303 289.524864,80.4178183 291.26443,80.4178183 C292.051858,80.4178183 293.036846,80.2207268 293.66003,79.8927103 L293.66003,82.9452816 C292.642663,83.4046924 291.133505,83.699391 289.886198,83.699391 C286.374216,83.699391 284.044313,81.5665799 284.044313,78.3826144 L284.044313,69.292475 L281.353077,69.292475 L281.353077,66.2394345 L284.240936,66.2394345 L284.240936,61.2849307 L288.376571,61.2849307 L288.376571,66.2394345 L293.66003,66.2394345 L293.66003,69.292475 L288.376571,69.292475 Z" id="Fill-21" fill="#12284D"></path>
        <path d="M311.719332,72.4434981 L311.719332,83.3712807 L307.387544,83.3712807 L307.387544,73.0990618 C307.387544,70.8672357 305.976463,69.357609 303.843182,69.357609 C301.479962,69.357609 299.872259,71.1628729 299.872259,73.9198069 L299.872259,83.3712807 L295.539532,83.3712807 L295.539532,58.1013406 L299.872259,58.1013406 L299.872259,69.1605175 L299.937487,69.1605175 C300.955323,67.1924186 303.317605,65.9122627 305.877448,65.9122627 C309.388961,65.9122627 311.719332,68.5044846 311.719332,72.4434981" id="Fill-22" fill="#12284D"></path>
    </g>
</svg>