<?xml version="1.0" encoding="UTF-8"?>
<svg width="312px" height="84px" viewBox="0 0 312 84" version="1.1" xmlns="http://www.w3.org/2000/svg" xmlns:xlink="http://www.w3.org/1999/xlink">
    <title>HealthLogo/White</title>
    <g id="HealthLogo/White" stroke="none" stroke-width="1" fill="none" fill-rule="evenodd">
        <g id="Group" transform="translate(0.000000, 0.000000)" fill="#FFFFFF" fill-rule="nonzero">
            <g id="Logo/White" transform="translate(0.000000, 0.000000)">
                <g id="Logomark/White">
                    <path d="M15.1843275,17.7219416 C21.1685611,17.3235875 27.4173917,19.7296384 31.4868867,23.9521219 L31.6885341,24.1647552 L31.8929527,24.3873382 C35.4860142,28.3678202 37.8549491,34.6197024 38.0565163,40.2319301 C38.2756892,46.334354 35.9039867,50.4334029 31.3199835,50.4334029 C24.2758751,50.4334029 22.6423372,40.4518978 26.7246096,30.8370926 C26.8749466,30.4412113 27.0481345,30.2233227 27.2441731,30.1834268 C27.4402118,30.1435308 27.6266751,30.2329572 27.8035629,30.4517057 C29.3600781,32.9173584 30.1669503,34.2074035 30.2241797,34.321841 C30.3100237,34.4934972 30.3100237,34.4766692 30.1021164,35.1113249 L29.9616868,35.5407417 C29.939095,35.6121019 29.916909,35.6833511 29.8951276,35.7544799 L29.7692849,36.1797324 C29.7491171,36.2503418 29.7293516,36.320812 29.7099872,36.3911335 L29.5986035,36.8112019 L29.4967882,37.2272479 L29.4044844,37.6388181 C29.3752954,37.7752118 29.3476822,37.9107841 29.3216353,38.0454593 L29.2481839,38.4467184 L29.1840735,38.8421422 C29.1642539,38.9729272 29.1459816,39.1026641 29.1292472,39.2312773 L29.0836482,39.6136707 C29.0699801,39.7399612 29.0578404,39.8650525 29.0472197,39.9888691 L29.0199047,40.3564193 L29.0016465,40.7158681 C28.8916561,43.5578444 29.645657,45.5785783 31.1326847,45.7338801 L31.2265773,45.7411481 L31.3199835,45.7435031 C32.8053577,45.7435031 33.6756603,44.037718 33.6355075,41.1179744 C33.59424,38.1171639 32.5762631,34.4348771 30.8822701,31.3928161 C24.9605718,20.7617036 9.87394891,20.0471034 5.26701819,30.6389195 L5.13064222,30.9633459 C4.96612682,31.407654 4.55634651,31.4555293 3.76763708,31.2178431 L3.54303915,31.1460229 L3.29904879,31.0605424 L3.03506348,30.9619013 L2.75048066,30.8505996 L2.28366805,30.6610016 L1.95609149,30.5243503 L1.65395275,30.3946336 L1.37722814,30.2710017 L1.12589392,30.1526046 C0.21108076,29.7076964 -0.144608208,29.3594378 0.0528164616,28.892385 C2.92470833,21.9988814 8.46559975,18.1691889 15.1843275,17.7219416 Z M33.247605,22.0691574 C37.6497518,18.6584537 43.5712305,17.0497014 49.0184018,17.8679169 C54.9663614,18.7613555 59.7974316,22.3924143 62.4557755,28.4929502 L62.57879,28.7807205 C62.7770027,29.1997261 62.56396,29.4881546 61.8360615,29.8637797 L61.6247009,29.9685485 L61.3873432,30.0786227 L61.1235214,30.1949841 L60.8327686,30.3186145 L60.3451219,30.5198366 L59.7163885,30.7724038 L59.4390707,30.8796773 L59.1850308,30.9739099 L58.9532027,31.0548256 L58.7425203,31.1221488 C58.0408933,31.3336713 57.7082302,31.2903634 57.5388479,30.9390202 L57.515739,30.8867271 C54.1095619,22.5324198 44.1030291,20.5979092 36.6012792,25.9383175 L36.3283817,26.1309357 C36.0966568,26.254902 35.8972807,26.2341213 35.7302533,26.0685934 C35.563226,25.9030655 35.1748508,25.4046553 34.5651279,24.5733628 C33.7202998,23.4946245 33.2296989,22.8501899 33.0933253,22.640059 C32.9569516,22.429928 33.0083782,22.2396275 33.247605,22.0691574 Z" id="Shape"></path>
                    <path d="M31.4127241,-1.07890137e-15 C36.2710008,-1.07890137e-15 40.2525735,3.86246394 40.2525735,8.60750383 C40.2525735,13.3675422 36.3015115,17.2150077 31.4127241,17.2150077 C26.5244628,17.2150077 22.5728746,13.3672826 22.5728746,8.60750383 C22.5728746,3.84772503 26.5244628,-1.07890137e-15 31.4127241,-1.07890137e-15 Z M31.4127241,4.4637563 C29.0783144,4.4637563 27.1571228,6.33445154 27.1571228,8.60750383 C27.1571228,10.8805561 29.0783144,12.7512514 31.4127241,12.7512514 C33.7327736,12.7512514 35.6268787,10.8945542 35.6683253,8.60750383 C35.6683253,6.33417308 33.7476404,4.4637563 31.4127241,4.4637563 Z" id="Shape"></path>
                </g>
                <g id="Group" transform="translate(72.359838, 3.180610)">
                    <path d="M0.366918367,34.3760447 L0.366918367,15.229913 L8.50916327,15.229913 L8.50916327,33.5959245 C8.50916327,38.0494032 11.2232449,41.033226 15.200449,41.033226 C19.178449,41.033226 21.8925306,38.0946954 21.8925306,33.5959245 L21.8925306,15.229913 L30.0347755,15.229913 L30.0347755,34.3760447 C30.0347755,42.1819315 24.1386122,47.370238 15.1996531,47.370238 C6.31004082,47.370238 0.366918367,42.1827124 0.366918367,34.3760447 Z" id="Path"></path>
                    <path d="M83.2904694,26.387427 L83.2904694,46.7728487 L75.1482245,46.7728487 L75.1482245,27.7188633 C75.1482245,23.6784813 72.7620612,21.0156088 69.1119796,21.0156088 C65.0408571,21.0156088 62.3267755,24.2758706 62.3267755,29.2338113 L62.3267755,46.7728487 L54.1845306,46.7728487 L54.1845306,27.7188633 C54.1845306,23.6784813 51.7975714,21.0156088 48.1005306,21.0156088 C44.0294082,21.0156088 41.3153265,24.2758706 41.3153265,29.2338113 L41.3153265,46.7728487 L33.1730816,46.7728487 L33.1730816,15.276767 L41.3153265,15.276767 L41.3153265,20.6485853 L41.4554082,20.6485853 C43.1873265,17.0213 47.3523673,14.6793777 51.9846122,14.6793777 C56.6176531,14.6793777 59.9867755,17.2048117 61.4377347,21.3826323 L61.5778163,21.3826323 C63.6838163,17.3422503 68.0828571,14.6793777 72.949898,14.6793777 C79.1723878,14.6793777 83.2904694,19.3624413 83.2904694,26.387427 Z" id="Path"></path>
                    <path d="M119.839041,31.0251983 C119.839041,40.8504952 114.410878,47.370238 106.221673,47.370238 C101.167592,47.370238 96.6276735,45.0283157 94.8503878,41.1714455 L94.7095102,41.1714455 L94.7095102,46.7728487 L86.5672653,46.7728487 L86.5672653,0.308455911 L94.7095102,0.308455911 L94.7095102,20.8773893 L94.8503878,20.8773893 C96.6754286,17.0205191 101.168388,14.6785968 106.17551,14.6785968 C114.363918,14.6793777 119.839041,21.1991205 119.839041,31.0251983 Z M111.602878,31.0251983 C111.602878,25.0099176 108.233755,20.9234625 103.178878,20.9234625 C98.1247959,20.9234625 94.7556735,24.9638444 94.7556735,31.0251983 C94.7556735,36.993625 98.1247959,41.033226 103.178878,41.033226 C108.186796,41.0340069 111.602878,36.993625 111.602878,31.0251983 Z" id="Shape"></path>
                    <path d="M145.529694,15.276767 L145.529694,22.623484 C144.125694,22.0721679 141.879612,21.7043635 139.91449,21.7043635 C134.672571,21.7043635 131.163367,25.7908186 131.163367,32.0349034 L131.163367,46.7728487 L123.021122,46.7728487 L123.021122,15.276767 L131.210327,15.276767 L131.210327,21.7965098 L131.351204,21.7965098 C132.989204,17.5265429 137.060327,14.6801567 141.55249,14.6801567 C142.909531,14.6793777 144.500571,14.9089626 145.529694,15.276767 Z" id="Path"></path>
                    <path d="M179.832184,32.4027077 L154.982816,32.4027077 C155.403857,38.00333 158.726816,41.6306153 163.546898,41.6306153 C167.524898,41.6306153 170.94098,39.3355472 171.83002,35.8457004 L179.692102,35.8457004 C178.287306,42.7785399 171.83002,47.370238 163.499939,47.370238 C153.578816,47.370238 147.027612,40.8052029 147.027612,31.0251983 C147.027612,21.1991205 153.625776,14.6793777 163.499939,14.6793777 C173.280184,14.6793777 179.785224,21.3365591 179.785224,31.3453677 L179.785224,32.4027077 L179.832184,32.4027077 Z M155.076735,28.3623258 L171.736102,28.3623258 C170.94098,23.3567501 167.805857,20.1433423 163.499939,20.1433423 C159.101694,20.1433423 155.965776,23.3567501 155.076735,28.3623258 Z" id="Shape"></path>
                    <polygon id="Path" points="183.108184 0.309236812 191.250429 0.309236812 191.250429 46.7736296 183.108184 46.7736296"></polygon>
                    <polygon id="Path" points="194.713469 0.309236812 202.855714 0.309236812 202.855714 46.7736296 194.713469 46.7736296"></polygon>
                    <path d="M239.451245,15.276767 L239.451245,46.7728487 L231.309,46.7728487 L231.309,41.1714455 L231.168122,41.1714455 C229.390041,45.0275348 224.850122,47.370238 219.796837,47.370238 C211.607633,47.370238 206.13251,40.8504952 206.13251,31.0251983 C206.13251,21.1991205 211.654592,14.6793777 219.843796,14.6793777 C224.803959,14.6793777 229.296918,17.0213 231.168918,20.8781702 L231.309796,20.8781702 L231.309796,15.276767 L239.451245,15.276767 L239.451245,15.276767 Z M231.308204,31.0251983 C231.308204,25.0099176 227.939082,20.9234625 222.885,20.9234625 C217.830122,20.9234625 214.461,24.9638444 214.461,31.0251983 C214.461,36.993625 217.830122,41.033226 222.885,41.033226 C227.939082,41.0340069 231.308204,36.993625 231.308204,31.0251983 Z" id="Shape"></path>
                </g>
            </g>
        </g>
        <path d="M235.256107,72.4434981 L235.256107,83.3712807 L230.923849,83.3712807 L230.923849,73.0990618 C230.923849,70.8672357 229.512299,69.357609 227.379019,69.357609 C225.016737,69.357609 223.408095,71.1628729 223.408095,73.9198069 L223.408095,83.3712807 L219.076307,83.3712807 L219.076307,58.1013406 L223.408095,58.1013406 L223.408095,69.1605175 L223.474262,69.1605175 C224.49116,67.1924186 226.85438,65.9122627 229.414223,65.9122627 C232.925735,65.9122627 235.256107,68.5044846 235.256107,72.4434981" id="Fill-17" fill="#FFFFFF"></path>
        <path d="M241.26078,73.361428 L250.155236,73.361428 C249.727735,70.6368733 248.054804,68.8977759 245.757281,68.8977759 C243.39406,68.8977759 241.720191,70.6368733 241.26078,73.361428 L241.26078,73.361428 Z M254.453706,75.5599363 L241.195552,75.5599363 C241.425492,78.6120382 243.197438,80.5820142 245.757281,80.5820142 C247.890092,80.5820142 249.695356,79.3347069 250.187615,77.4308973 L254.388948,77.4308973 C253.633431,81.2056679 250.187615,83.6993441 245.757281,83.6993441 C240.472883,83.6993441 236.96184,80.1216649 236.96184,74.8058268 C236.96184,69.4566709 240.472883,65.9123096 245.757281,65.9123096 C250.975512,65.9123096 254.453706,69.5218988 254.453706,74.9700697 L254.453706,75.5599363 Z" id="Fill-18" fill="#FFFFFF"></path>
        <path d="M269.264097,74.8058738 C269.264097,71.524301 267.458833,69.3248543 264.768065,69.3248543 C262.076828,69.3248543 260.271565,71.524301 260.271565,74.8058738 C260.271565,78.0555364 262.076828,80.2540447 264.768065,80.2540447 C267.458833,80.2540447 269.264097,78.0555364 269.264097,74.8058738 L269.264097,74.8058738 Z M273.595885,66.2394345 L273.595885,83.3713745 L269.264097,83.3713745 L269.264097,80.3192726 L269.1984,80.3192726 C268.24626,82.4201736 265.817812,83.699391 263.127044,83.699391 C258.761938,83.699391 255.84123,80.1550297 255.84123,74.8058738 C255.84123,69.4567178 258.794787,65.9123565 263.159893,65.9123565 C265.817812,65.9123565 268.21435,67.1920432 269.1984,69.292475 L269.264097,69.292475 L269.264097,66.2394345 L273.595885,66.2394345 Z" id="Fill-19" fill="#FFFFFF"></path>
        <polygon id="Fill-20" fill="#FFFFFF" points="275.675576 83.3715622 280.007834 83.3715622 280.007834 58.1011529 275.675576 58.1011529"></polygon>
        <path d="M288.376571,69.292475 L288.376571,78.0222186 C288.376571,79.4328303 289.524864,80.4178183 291.26443,80.4178183 C292.051858,80.4178183 293.036846,80.2207268 293.66003,79.8927103 L293.66003,82.9452816 C292.642663,83.4046924 291.133505,83.699391 289.886198,83.699391 C286.374216,83.699391 284.044313,81.5665799 284.044313,78.3826144 L284.044313,69.292475 L281.353077,69.292475 L281.353077,66.2394345 L284.240936,66.2394345 L284.240936,61.2849307 L288.376571,61.2849307 L288.376571,66.2394345 L293.66003,66.2394345 L293.66003,69.292475 L288.376571,69.292475 Z" id="Fill-21" fill="#FFFFFF"></path>
        <path d="M311.719332,72.4434981 L311.719332,83.3712807 L307.387544,83.3712807 L307.387544,73.0990618 C307.387544,70.8672357 305.976463,69.357609 303.843182,69.357609 C301.479962,69.357609 299.872259,71.1628729 299.872259,73.9198069 L299.872259,83.3712807 L295.539532,83.3712807 L295.539532,58.1013406 L299.872259,58.1013406 L299.872259,69.1605175 L299.937487,69.1605175 C300.955323,67.1924186 303.317605,65.9122627 305.877448,65.9122627 C309.388961,65.9122627 311.719332,68.5044846 311.719332,72.4434981" id="Fill-22" fill="#FFFFFF"></path>
    </g>
</svg>